<svg width="73" height="30" viewBox="0 0 73 30" fill="none" xmlns="http://www.w3.org/2000/svg">
<rect width="73" height="30" fill="#1E1E1E"/>
<rect width="1440" height="1104" transform="translate(-419 -739)" fill="#0B1517"/>
<rect x="-319" y="-366" width="1240" height="681" rx="20" fill="#101A1C"/>
<rect x="-288.5" y="-24.5" width="574" height="79" rx="9.5" stroke="white" stroke-opacity="0.3"/>
<path fill-rule="evenodd" clip-rule="evenodd" d="M72.9266 17.3021H63.071C63.3034 19.6405 65.0275 20.3918 66.9839 20.3918C68.9893 20.3918 70.6034 19.9435 71.9362 19.2407V23.2633C70.2448 24.2277 68.3094 24.6903 66.3603 24.5961C61.457 24.5961 58.0087 21.567 58.0087 15.5331C58.0087 10.4564 60.9312 6.42165 65.7122 6.42165C70.5055 6.42165 73 10.3958 73 15.5089C73 15.9935 72.9511 17.0355 72.9266 17.3021ZM65.6878 10.4927C64.4283 10.4927 63.0343 11.3772 63.0343 13.6187H68.2312C68.2312 11.3772 66.9228 10.4927 65.6878 10.4927ZM50.0729 24.5961C48.3121 24.5961 47.236 23.8691 46.5268 23.336L46.5023 28.9459L41.4645 30V6.74879H46.0621L46.16 7.98465C47.2264 6.98238 48.6398 6.42304 50.1095 6.42165C53.6556 6.42165 56.9816 9.57189 56.9816 15.3877C56.9816 21.7246 53.6801 24.5961 50.0729 24.5961ZM48.9112 10.8441C47.7496 10.8441 47.0281 11.2561 46.5023 11.8255L46.5268 19.2407C47.0159 19.7738 47.7251 20.1858 48.9112 20.1858C50.7699 20.1858 52.0171 18.1866 52.0171 15.4968C52.0171 12.8918 50.7454 10.8441 48.9112 10.8441ZM34.5313 6.74879H39.5814V24.2447H34.5313V6.74879ZM34.5313 1.05412L39.5814 0V4.07108L34.5313 5.13732V1.06624V1.05412ZM29.2489 12.3829V24.2447H24.2111V6.74879H28.7353L28.8821 8.22698C30.1049 6.08239 32.636 6.51858 33.3085 6.74879V11.3409C32.6727 11.1349 30.5084 10.8199 29.2489 12.3829ZM18.7941 18.1018C18.7941 21.046 21.9734 20.1373 22.6092 19.8708V23.9418C21.9367 24.3053 20.7261 24.5961 19.0754 24.5961C18.3874 24.616 17.7025 24.497 17.0623 24.2463C16.4222 23.9957 15.8402 23.6186 15.3518 23.138C14.8634 22.6575 14.4788 22.0835 14.2213 21.451C13.9638 20.8185 13.8389 20.1407 13.8541 19.4588L13.8663 3.50162L18.7819 2.45961V6.74879H22.6214V11.0258H18.7941V18.1139V18.1018ZM12.7903 18.9499C12.7903 22.5485 9.96566 24.5961 5.78375 24.5961C3.90717 24.5947 2.05091 24.2112 0.330151 23.4693V18.7076C2.01759 19.6163 4.12077 20.2948 5.78375 20.2948C6.90871 20.2948 7.65461 20.004 7.65461 19.0832C7.65461 16.6842 0 17.5808 0 12.0557C0 8.52989 2.78794 6.42165 6.87203 6.42165C8.53501 6.42165 10.198 6.66397 11.8732 7.33037V12.0315C10.3251 11.2242 8.6088 10.7845 6.8598 10.7472C5.80821 10.7472 5.099 11.0501 5.099 11.8376C5.099 14.0792 12.7903 13.0129 12.7903 18.962V18.9499Z" fill="white"/>
<path d="M35.7196 29.8559V29.0562H36.0543V28.923H35.251V29.0562H35.5857V29.8559H35.7196ZM37.2594 29.8559V28.923H36.9916L36.7238 29.5893L36.456 28.923H36.1882V29.8559H36.3891V29.1229L36.6568 29.7226H36.8577L37.1255 29.1229V29.8559H37.2594Z" fill="#F79E1B"/>
</svg>
